<?xml version="1.0" encoding="UTF-8" standalone="no"?>
<!-- Created with Inkscape (http://www.inkscape.org/) -->

<svg
   xmlns:dc="http://purl.org/dc/elements/1.1/"
   xmlns:cc="http://creativecommons.org/ns#"
   xmlns:rdf="http://www.w3.org/1999/02/22-rdf-syntax-ns#"
   xmlns:svg="http://www.w3.org/2000/svg"
   xmlns="http://www.w3.org/2000/svg"
   xmlns:sodipodi="http://sodipodi.sourceforge.net/DTD/sodipodi-0.dtd"
   xmlns:inkscape="http://www.inkscape.org/namespaces/inkscape"
   width="100"
   height="100"
   viewBox="0 0 100 100"
   id="svg2"
   version="1.1"
   inkscape:version="0.91 r13725"
   sodipodi:docname="tile_set.svg"
   inkscape:export-filename="/home/rcreed/Development/Godot/RedMetal/tile_sign_top.png"
   inkscape:export-xdpi="90"
   inkscape:export-ydpi="90">
  <defs
     id="defs4" />
  <sodipodi:namedview
     id="base"
     pagecolor="#ffffff"
     bordercolor="#666666"
     borderopacity="1.0"
     inkscape:pageopacity="0.0"
     inkscape:pageshadow="2"
     inkscape:zoom="2.8284273"
     inkscape:cx="-3.7015101"
     inkscape:cy="26.17139"
     inkscape:document-units="px"
     inkscape:current-layer="layer2"
     showgrid="false"
     units="px"
     showguides="true"
     inkscape:window-width="1317"
     inkscape:window-height="744"
     inkscape:window-x="49"
     inkscape:window-y="24"
     inkscape:window-maximized="1">
    <sodipodi:guide
       position="62.225393,107.12667"
       orientation="0,1"
       id="guide4206" />
  </sodipodi:namedview>
  <metadata
     id="metadata7">
    <rdf:RDF>
      <cc:Work
         rdf:about="">
        <dc:format>image/svg+xml</dc:format>
        <dc:type
           rdf:resource="http://purl.org/dc/dcmitype/StillImage" />
        <dc:title></dc:title>
      </cc:Work>
    </rdf:RDF>
  </metadata>
  <g
     inkscape:groupmode="layer"
     id="layer3"
     inkscape:label="Ground"
     transform="translate(0,50)">
    <rect
       style="fill:#d4aa00;fill-opacity:1"
       id="rect3656"
       width="100"
       height="36"
       x="-128"
       y="14.000002" />
    <path
       style="fill:none;fill-rule:evenodd;stroke:#000000;stroke-width:0.29681113px;stroke-linecap:butt;stroke-linejoin:miter;stroke-opacity:1"
       d="m -120.90216,23.101851 c 0.16981,0 0.34053,0 0.50922,0 0.13916,0 0.26849,0 0.40737,0 0.13487,0 0.27295,0 0.40739,0 0.10626,0 0.19924,0 0.30552,0 0.13447,0 0.27263,0 0.40737,0 0.13896,0 0.26827,0 0.40739,0 0.1688,0 0.33947,0 0.50922,0 0.61107,0 1.22212,0 1.83318,0 2.59373,0 -0.23116,0 2.64794,0 0.83224,0 1.70949,0 2.54611,0 0.74684,0 1.49372,0 2.24055,0 0.0934,0 0.58636,0 0.61107,0 0.0564,0 -0.048,0 0,-0.02705 0.048,0 0.13855,0 0.20374,0 0.17574,0 0.32704,0 0.50921,-0.02705 0.23924,0 0.47356,0 0.7129,0 0.50772,0 1.01933,0 1.52767,0 0.27322,0 0.542,0 0.81477,0 0.13528,0 0.27419,0 0.40735,0 0.21054,0 0.40054,0 0.61106,0.02705 0.29962,0 0.6126,0 0.91661,0 0.17227,0 0.33785,0 0.50922,0 0.29541,0 0.71753,0 1.01844,0 0.13589,0 0.28592,0 0.40737,0 0.0678,0 0.0339,0 0.10176,-0.02705 0.0441,0 0.818978,0 0.916588,0"
       id="path3867"
       inkscape:connector-curvature="0" />
    <path
       inkscape:connector-curvature="0"
       id="path3869"
       d="m -114.8534,23.864928 c 0.16982,0 0.34053,0 0.50924,0 0.13917,0 0.26848,0 0.40735,0 0.13487,0 0.27297,0 0.4074,0 0.10626,0 0.19924,0 0.30552,0 0.13446,0 0.27262,0 0.40737,0 0.13896,0 0.26827,0 0.40739,0 0.16879,0 0.33947,0 0.50922,0 0.61106,0 1.22211,0 1.83318,0 2.59372,0 -0.23116,0 2.64796,0 0.83221,0 1.70946,0 2.54609,0 0.74686,0 1.49371,0 2.24055,0 0.0934,0 0.58636,0 0.61106,0 0.0564,0 -0.048,0 0,-0.02705 0.048,0 0.13835,0 0.20374,0 0.17574,0 0.32704,0 0.50922,-0.02705 0.23923,0 0.47356,0 0.71289,0 0.50773,0 1.019338,0 1.527678,0 0.27321,0 0.54199,0 0.81476,0 0.13528,0 0.2742,0 0.40735,0 0.21056,0 0.40055,0 0.61107,0.02705 0.29961,0 0.6126,0 0.91661,0 0.17226,0 0.33785,0 0.50922,0 0.2954,0 0.71753,0 1.01843,0 0.13589,0 0.28593,0 0.40737,0 0.0678,0 0.0339,0 0.10197,-0.02705 0.0441,0 0.81897,0 0.91659,0"
       style="fill:none;fill-rule:evenodd;stroke:#000000;stroke-width:0.29681113px;stroke-linecap:butt;stroke-linejoin:miter;stroke-opacity:1" />
    <path
       style="fill:none;fill-rule:evenodd;stroke:#000000;stroke-width:0.29681113px;stroke-linecap:butt;stroke-linejoin:miter;stroke-opacity:1"
       d="m -116.72783,24.637856 c 0.16981,0 0.34053,0 0.50922,0 0.13916,0 0.26849,0 0.40737,0 0.13487,0 0.27295,0 0.40737,0 0.10626,0 0.19924,0 0.30554,0 0.13446,0 0.27264,0 0.40737,0 0.13896,0 0.26825,0 0.40737,0 0.1688,0 0.33947,0 0.50924,0 0.61105,0 1.22211,0 1.83316,0 2.59373,0 -0.23114,0 2.64796,0 0.83221,0 1.70949,0 2.54609,0 0.74686,0 1.49372,0 2.24057,0 0.0934,0 0.58636,0 0.61107,0 0.0566,0 -0.048,0 0,-0.02705 0.048,0 0.13855,0 0.20373,0 0.17575,0 0.32705,0 0.50922,-0.02705 0.23921,0 0.47356,0 0.7129,0 0.50772,0 1.01931,0 1.52767,0 0.27324,0 0.54198,0 0.81474,0 0.135278,0 0.274218,0 0.407368,0 0.21055,0 0.40053,0 0.61107,0.02705 0.29962,0 0.6126,0 0.91661,0 0.17227,0 0.33783,0 0.50922,0 0.29541,0 0.71753,0 1.01842,0 0.13589,0 0.28592,0 0.40739,0 0.0678,0 0.0339,0 0.10197,-0.02705 0.0441,0 0.81895,0 0.91659,0"
       id="path3871"
       inkscape:connector-curvature="0" />
    <path
       inkscape:connector-curvature="0"
       id="path3873"
       d="m -117.24561,25.383159 c 0.16981,0 0.34053,0 0.50922,0 0.13916,0 0.26849,0 0.40739,0 0.13487,0 0.27293,0 0.40737,0 0.10626,0 0.19924,0 0.30552,0 0.13446,0 0.27264,0 0.40739,0 0.13896,0 0.26825,0 0.40737,0 0.1688,0 0.33949,0 0.50922,0 0.61105,0 1.22211,0 1.8332,0 2.59371,0 -0.23118,0 2.64792,0 0.83225,0 1.70951,0 2.54609,0 0.74686,0 1.49371,0 2.24057,0 0.0934,0 0.58636,0 0.61109,0 0.0564,0 -0.048,0 0,-0.02705 0.048,0 0.13834,0 0.20373,0 0.17574,0 0.32705,0 0.50922,-0.02705 0.23921,0 0.47358,0 0.71292,0 0.50772,0 1.01931,0 1.52765,0 0.27324,0 0.542,0 0.81474,0 0.13528,0 0.27424,0 0.40739,0 0.21053,0 0.400528,0 0.611068,0.02705 0.2996,0 0.61258,0 0.91659,0 0.17227,0 0.33785,0 0.50922,0 0.29541,0 0.71753,0 1.01846,0 0.13589,0 0.2859,0 0.40735,0 0.0678,0 0.0339,0 0.10176,-0.02705 0.0441,0 0.81897,0 0.91661,0"
       style="fill:none;fill-rule:evenodd;stroke:#000000;stroke-width:0.29681113px;stroke-linecap:butt;stroke-linejoin:miter;stroke-opacity:1" />
    <path
       inkscape:connector-curvature="0"
       id="path3875"
       d="m -109.69676,26.017189 c 0.13242,-0.02705 0.26568,-0.0541 0.3973,-0.08113 0.10851,-0.02125 0.20948,-0.0425 0.31782,-0.06568 0.10524,-0.02125 0.21293,-0.0425 0.31783,-0.06568 0.083,-0.01932 0.15551,-0.03091 0.23837,-0.04829 0.10483,-0.02125 0.21271,-0.0425 0.31785,-0.06568 0.1083,-0.02125 0.20927,-0.0425 0.31782,-0.06568 0.1316,-0.02705 0.26484,-0.0541 0.39728,-0.08113 0.47676,-0.09659 0.95349,-0.193183 1.43024,-0.289002 2.02359,-0.408585 -0.18044,0.0367 2.06589,-0.417278 0.64932,-0.131365 1.33375,-0.269298 1.98644,-0.401242 0.5827,-0.117843 1.16541,-0.235299 1.74809,-0.35314 0.0728,-0.01932 0.457468,-0.09273 0.476738,-0.09659 0.0441,-0.01931 -0.0374,0.01932 -0.006,-0.01931 0.0374,-0.01932 0.10811,-0.02125 0.15899,-0.03091 0.13712,-0.02898 0.25515,-0.05217 0.3912,-0.09659 0.18678,-0.03863 0.36947,-0.07534 0.5562,-0.112046 0.39613,-0.0792 0.79527,-0.160343 1.19187,-0.240708 0.21318,-0.0425 0.42286,-0.085 0.63567,-0.129432 0.10565,-0.02125 0.21393,-0.0425 0.31783,-0.06568 0.16429,-0.03284 0.31249,-0.06375 0.48283,-0.0792 0.23374,-0.04829 0.47794,-0.09659 0.71512,-0.144887 0.13447,-0.02705 0.26359,-0.0541 0.3973,-0.08113 0.23047,-0.04636 0.55982,-0.113978 0.79457,-0.160342 0.10606,-0.02125 0.22307,-0.04443 0.31783,-0.06568 0.0529,-0.01932 0.0266,0 0.0734,-0.03284 0.0343,-0.01932 0.63896,-0.129433 0.71512,-0.144887"
       style="fill:none;fill-rule:evenodd;stroke:#000000;stroke-width:0.21228695px;stroke-linecap:butt;stroke-linejoin:miter;stroke-opacity:1" />
    <path
       style="fill:none;fill-rule:evenodd;stroke:#000000;stroke-width:0.20113283px;stroke-linecap:butt;stroke-linejoin:miter;stroke-opacity:1"
       d="m -113.68828,25.93837 c 0.11648,-0.02705 0.23339,-0.05603 0.34901,-0.08113 0.0954,-0.02318 0.18412,-0.04443 0.27921,-0.06761 0.0924,-0.02319 0.18718,-0.04443 0.27922,-0.06568 0.0728,-0.02318 0.13671,-0.03284 0.2094,-0.04829 0.0922,-0.02318 0.18697,-0.04443 0.27922,-0.06568 0.0952,-0.02319 0.18391,-0.04443 0.27918,-0.06568 0.11566,-0.02705 0.23269,-0.05603 0.34903,-0.08113 0.41879,-0.09853 0.83761,-0.197626 1.25644,-0.295185 1.77766,-0.417663 -0.15857,0.0367 1.81485,-0.426163 0.57038,-0.135229 1.17164,-0.275481 1.74504,-0.410129 0.51188,-0.121706 1.02375,-0.240514 1.53565,-0.360868 0.064,-0.02319 0.40187,-0.09466 0.41879,-0.09853 0.0388,-0.02318 -0.0329,0.02319 -0.006,-0.02318 0.0329,-0.02319 0.0948,-0.02319 0.13957,-0.03284 0.12057,-0.02705 0.22417,-0.0541 0.34368,-0.09852 0.16409,-0.03864 0.32454,-0.07727 0.4886,-0.113979 0.34798,-0.08113 0.69863,-0.164206 1.04702,-0.24573 0.18739,-0.04443 0.37149,-0.08887 0.55843,-0.129433 0.0928,-0.02318 0.188,-0.04443 0.27922,-0.06568 0.14427,-0.03284 0.2745,-0.06568 0.42415,-0.08113 0.20533,-0.04829 0.41986,-0.09659 0.62823,-0.14682 0.11811,-0.02705 0.23155,-0.05603 0.34899,-0.08113 0.20251,-0.04636 0.49179,-0.115911 0.698038,-0.162276 0.0932,-0.02319 0.19597,-0.04636 0.27918,-0.06761 0.0466,-0.02318 0.0233,0 0.0646,-0.03284 0.0302,-0.02319 0.56131,-0.133297 0.62823,-0.14682"
       id="path3877"
       inkscape:connector-curvature="0" />
    <path
       inkscape:connector-curvature="0"
       id="path3879"
       d="m -116.94362,25.937597 c 0.11627,-0.02898 0.23328,-0.05796 0.34886,-0.08694 0.0954,-0.02318 0.18392,-0.04636 0.2791,-0.06955 0.0924,-0.02319 0.18698,-0.04636 0.27912,-0.06955 0.0727,-0.01932 0.13651,-0.03477 0.20934,-0.05215 0.0922,-0.02319 0.18677,-0.04636 0.2791,-0.06955 0.0952,-0.02318 0.18391,-0.04636 0.27912,-0.07148 0.11566,-0.02898 0.23259,-0.05796 0.34889,-0.08694 0.41865,-0.104318 0.83732,-0.209604 1.25599,-0.314503 1.77704,-0.444903 -0.15837,0.04057 1.81421,-0.454175 0.5702,-0.142956 1.17123,-0.293253 1.74443,-0.436789 0.51169,-0.127501 1.02338,-0.256162 1.5351,-0.384242 0.064,-0.01932 0.40173,-0.100456 0.41867,-0.104319 0.0386,-0.01932 -0.0329,0.01932 -0.006,-0.01932 0.0329,-0.01932 0.0948,-0.02319 0.13957,-0.03477 0.12056,-0.03091 0.22407,-0.05603 0.34355,-0.10432 0.16389,-0.04057 0.32447,-0.08113 0.48844,-0.121705 0.34784,-0.08694 0.69838,-0.175798 1.04665,-0.261958 0.18719,-0.04636 0.37135,-0.09273 0.5582,-0.139092 0.0928,-0.02318 0.18801,-0.04636 0.27913,-0.07148 0.14427,-0.0367 0.27442,-0.06955 0.42402,-0.08694 0.20527,-0.05216 0.41969,-0.104319 0.62799,-0.156478 0.11811,-0.02898 0.23148,-0.05796 0.34888,-0.08694 0.20251,-0.05022 0.49161,-0.123637 0.69777,-0.173864 0.093,-0.02319 0.19598,-0.04829 0.27913,-0.06955 0.0466,-0.01932 0.0233,0 0.0644,-0.0367 0.0302,-0.01932 0.5611,-0.141025 0.628,-0.156479"
       style="fill:none;fill-rule:evenodd;stroke:#000000;stroke-width:0.207551px;stroke-linecap:butt;stroke-linejoin:miter;stroke-opacity:1" />
  </g>
  <g
     inkscape:groupmode="layer"
     id="layer2"
     inkscape:label="Posts"
     style="display:inline"
     transform="translate(0,50)">
    <rect
       style="fill:#000000;fill-opacity:1"
       id="rect3482"
       width="4"
       height="80"
       x="-130"
       y="-28" />
    <ellipse
       ry="0.5"
       rx="2"
       cy="-28.086224"
       cx="-128"
       id="ellipse3501"
       style="fill:#000000;fill-opacity:1" />
    <rect
       style="fill:#803300;fill-opacity:1;stroke:#000000;stroke-width:0.25126678;stroke-miterlimit:4;stroke-dasharray:none;stroke-opacity:1"
       id="rect4009"
       width="7.748734"
       height="52.234035"
       x="59.30061"
       y="1.1403449" />
    <path
       style="fill:none;fill-rule:evenodd;stroke:#000000;stroke-width:0.29352385px;stroke-linecap:butt;stroke-linejoin:miter;stroke-opacity:1"
       d="m 63.889036,42.057663 c 9.8e-4,-0.139785 0.002,-0.280413 0.005,-0.419338 9.7e-4,-0.114566 0.002,-0.221096 0.002,-0.33547 9.8e-4,-0.110966 0.002,-0.224772 0.002,-0.335472 8.5e-4,-0.08752 0.002,-0.164094 0.002,-0.251604 9.7e-4,-0.110696 0.002,-0.224512 0.002,-0.335472 9.8e-4,-0.114381 0.002,-0.220909 0.002,-0.335472 9.8e-4,-0.138926 0.002,-0.279556 0.005,-0.419336 0.005,-0.503206 0.009,-1.006412 0.0138,-1.509619 0.0206,-2.135903 -0.002,0.190358 0.0206,-2.180563 0.007,-0.685337 0.0138,-1.407755 0.0206,-2.096693 0.007,-0.615031 0.0114,-1.230064 0.0184,-1.845093 7.6e-4,-0.07681 0.005,-0.482856 0.005,-0.503205 4.6e-4,-0.04652 -3.9e-4,0.03953 -0.0321,-1.7e-4 3.9e-4,-0.03954 9.7e-4,-0.113977 0.002,-0.167744 9.8e-4,-0.144747 0.002,-0.269315 -0.0279,-0.419511 0.002,-0.196999 0.005,-0.38998 0.005,-0.587074 0.005,-0.418104 0.009,-0.839403 0.0114,-1.258018 0.002,-0.225 0.005,-0.446332 0.007,-0.670942 9.8e-4,-0.111437 0.002,-0.225818 0.002,-0.33547 0.002,-0.173376 0.002,-0.329833 0.0369,-0.503039 0.002,-0.246717 0.005,-0.504456 0.007,-0.754811 9.8e-4,-0.141837 0.002,-0.278221 0.005,-0.419336 0.002,-0.243276 0.005,-0.590887 0.009,-0.838678 9.7e-4,-0.111824 0.002,-0.235455 0.002,-0.335471 5.6e-4,-0.05592 2.8e-4,-0.02796 -0.0312,-0.08403 3.6e-4,-0.0363 0.007,-0.674406 0.007,-0.754809"
       id="path4014"
       inkscape:connector-curvature="0" />
    <path
       inkscape:connector-curvature="0"
       id="path4016"
       d="m 65.036126,20.69989 c 9.8e-4,-0.13979 0.002,-0.28041 0.005,-0.41934 9.8e-4,-0.11456 0.002,-0.2211 0.002,-0.33547 9.7e-4,-0.110966 0.002,-0.224772 0.002,-0.335472 8.5e-4,-0.08751 0.002,-0.164094 0.002,-0.251603 9.8e-4,-0.110697 0.002,-0.224513 0.002,-0.335473 9.7e-4,-0.114381 0.002,-0.220909 0.002,-0.33547 9.8e-4,-0.138926 0.002,-0.279558 0.005,-0.419336 0.005,-0.503208 0.009,-1.006414 0.0138,-1.509621 0.0206,-2.135903 -0.002,0.190358 0.0206,-2.180563 0.007,-0.685337 0.0138,-1.407753 0.0206,-2.096693 0.007,-0.615031 0.0115,-1.230063 0.0184,-1.845093 7.6e-4,-0.07681 0.005,-0.482855 0.005,-0.503205 4.6e-4,-0.04652 -3.9e-4,0.03954 -0.0321,-1.7e-4 3.9e-4,-0.03953 9.8e-4,-0.113977 0.002,-0.167744 9.7e-4,-0.144747 0.002,-0.269315 -0.0279,-0.419511 0.002,-0.196997 0.005,-0.389979 0.005,-0.587074 0.005,-0.418104 0.009,-0.839403 0.0115,-1.258017 0.002,-0.225001 0.005,-0.446333 0.007,-0.670943 9.8e-4,-0.111437 0.002,-0.225818 0.002,-0.335469 0.002,-0.173376 0.002,-0.329833 0.0369,-0.50304 0.002,-0.246716 0.005,-0.504456 0.007,-0.754811 9.7e-4,-0.141836 0.002,-0.278221 0.005,-0.419336 0.002,-0.243274 0.005,-0.590887 0.009,-0.838678 9.8e-4,-0.111824 0.002,-0.235455 0.002,-0.335471 5.6e-4,-0.05592 2.8e-4,-0.02796 -0.0311,-0.08403 3.6e-4,-0.0363 0.007,-0.674404 0.007,-0.754809"
       style="fill:none;fill-rule:evenodd;stroke:#000000;stroke-width:0.29352385px;stroke-linecap:butt;stroke-linejoin:miter;stroke-opacity:1" />
    <path
       style="fill:none;fill-rule:evenodd;stroke:#000000;stroke-width:0.29352385px;stroke-linecap:butt;stroke-linejoin:miter;stroke-opacity:1"
       d="m 62.455186,25.755869 c 9.7e-4,-0.139784 0.002,-0.280413 0.005,-0.419337 9.8e-4,-0.114567 0.002,-0.221098 0.002,-0.335472 9.8e-4,-0.110966 0.002,-0.224771 0.002,-0.335471 8.5e-4,-0.08751 0.002,-0.164094 0.002,-0.251603 9.8e-4,-0.110697 0.002,-0.224513 0.002,-0.335472 9.8e-4,-0.114381 0.002,-0.220909 0.002,-0.335472 9.7e-4,-0.138926 0.002,-0.279557 0.005,-0.419336 0.005,-0.503206 0.009,-1.006413 0.0138,-1.509621 0.0206,-2.135901 -0.002,0.19036 0.0206,-2.180562 0.007,-0.685338 0.0138,-1.407754 0.0206,-2.096693 0.007,-0.61503 0.0115,-1.230064 0.0184,-1.845093 7.5e-4,-0.07681 0.005,-0.482855 0.005,-0.503204 4.6e-4,-0.04652 -3.9e-4,0.03953 -0.0321,-1.7e-4 3.9e-4,-0.03954 9.7e-4,-0.113978 0.002,-0.167745 9.8e-4,-0.144747 0.002,-0.269313 -0.028,-0.419511 0.002,-0.196996 0.005,-0.389977 0.005,-0.587072 0.005,-0.418104 0.009,-0.839403 0.0114,-1.258017 0.002,-0.225001 0.005,-0.446332 0.007,-0.670943 9.7e-4,-0.111437 0.002,-0.225818 0.002,-0.33547 0.002,-0.173375 0.002,-0.329833 0.0369,-0.503038 0.002,-0.246718 0.005,-0.504457 0.007,-0.754812 9.7e-4,-0.141836 0.002,-0.278221 0.005,-0.419336 0.002,-0.243275 0.005,-0.590887 0.009,-0.838678 9.8e-4,-0.111824 0.002,-0.235455 0.002,-0.335471 5.6e-4,-0.05592 2.9e-4,-0.02796 -0.0311,-0.08403 3.6e-4,-0.0363 0.007,-0.674406 0.007,-0.754809"
       id="path4018"
       inkscape:connector-curvature="0" />
    <rect
       y="22.14666"
       x="-27.504128"
       height="49.705849"
       width="14.705848"
       id="rect3390"
       style="fill:#803300;fill-opacity:1;stroke:#000000;stroke-width:0.29415268;stroke-miterlimit:4;stroke-dasharray:none;stroke-opacity:1"
       transform="matrix(0,-1,1,0,0,0)" />
    <ellipse
       style="opacity:1;fill:#803300;fill-opacity:1;stroke:#000000;stroke-width:0.24108899;stroke-miterlimit:4;stroke-dasharray:none;stroke-opacity:1"
       id="path4198"
       cx="63.108772"
       cy="0.95232153"
       rx="3.8794556"
       ry="1.3794556" />
    <ellipse
       style="opacity:1;fill:#6c5353;fill-opacity:1;stroke:#000000;stroke-width:0.21299794;stroke-miterlimit:4;stroke-dasharray:none;stroke-opacity:1"
       id="path4202"
       cx="65.185303"
       cy="15.70652"
       rx="0.89350104"
       ry="0.80218488" />
    <ellipse
       cy="23.889153"
       cx="65.185303"
       id="circle4204"
       style="opacity:1;fill:#6c5353;fill-opacity:1;stroke:#000000;stroke-width:0.21299794;stroke-miterlimit:4;stroke-dasharray:none;stroke-opacity:1"
       rx="0.89350104"
       ry="0.80218488" />
    <rect
       y="-28"
       x="-80"
       height="80"
       width="4"
       id="rect4382"
       style="fill:#000000;fill-opacity:1" />
    <rect
       style="fill:#000000;fill-opacity:1"
       id="rect4384"
       width="4"
       height="80"
       x="-30"
       y="-28" />
    <ellipse
       style="fill:#000000;fill-opacity:1"
       id="ellipse4386"
       cx="-78"
       cy="-28.086224"
       rx="2"
       ry="0.5" />
    <ellipse
       ry="0.5"
       rx="2"
       cy="-28.086224"
       cx="-28"
       id="ellipse4388"
       style="fill:#000000;fill-opacity:1" />
    <ellipse
       ry="0.80218488"
       rx="0.89350104"
       cy="15.70652"
       cx="61.185303"
       id="ellipse4420"
       style="opacity:1;fill:#6c5353;fill-opacity:1;stroke:#000000;stroke-width:0.21299794;stroke-miterlimit:4;stroke-dasharray:none;stroke-opacity:1" />
    <ellipse
       ry="0.80218488"
       rx="0.89350104"
       style="opacity:1;fill:#6c5353;fill-opacity:1;stroke:#000000;stroke-width:0.21299794;stroke-miterlimit:4;stroke-dasharray:none;stroke-opacity:1"
       id="ellipse4422"
       cx="61.185303"
       cy="23.889153" />
  </g>
  <g
     inkscape:label="Slats"
     inkscape:groupmode="layer"
     id="layer1"
     transform="translate(0,-952.3622)">
    <rect
       y="977.50977"
       x="-127.85245"
       height="9.704896"
       width="99.704903"
       id="rect3440"
       style="fill:#803300;fill-opacity:1;stroke:#000000;stroke-width:0.29510391;stroke-miterlimit:4;stroke-dasharray:none;stroke-opacity:1" />
    <path
       inkscape:connector-curvature="0"
       id="path3621"
       d="m -137.87277,979.9046 c 0.16923,0 0.3395,0 0.5077,0 0.1387,0 0.26769,0 0.40617,0 0.13434,0 0.27213,0 0.40616,0 0.10595,0 0.19867,0 0.30462,0 0.13402,0 0.27183,0 0.40617,0 0.13848,0 0.26746,0 0.40616,0 0.1682,0 0.33847,0 0.50771,0 0.60924,0 1.21849,0 1.82774,0 2.586,0 -0.23047,0 2.64007,0 0.82976,0 1.70441,0 2.53853,0 0.74463,0 1.48927,0 2.2339,0 0.093,0 0.58461,0 0.60925,0 0.0563,0 -0.0479,0 0,-0.03 0.0479,0 0.13799,0 0.20308,0 0.17524,0 0.32607,0 0.50771,-0.03 0.23851,0 0.47216,0 0.71078,0 0.50622,0 1.01629,0 1.52312,0 0.27242,0 0.54039,0 0.81233,0 0.13492,0 0.27341,0 0.40616,0 0.20992,0 0.39934,0 0.60925,0.03 0.29871,0 0.61076,0 0.91387,0 0.17172,0 0.33686,0 0.50771,0 0.29454,0 0.7154,0 1.01541,0 0.13538,0 0.28507,0 0.40616,0 0.0677,0 0.0339,0 0.10153,-0.03 0.0439,0 0.81653,0 0.91387,0"
       style="fill:none;fill-rule:evenodd;stroke:#000000;stroke-width:0.31770319px;stroke-linecap:butt;stroke-linejoin:miter;stroke-opacity:1" />
    <path
       style="fill:none;fill-rule:evenodd;stroke:#000000;stroke-width:0.31770319px;stroke-linecap:butt;stroke-linejoin:miter;stroke-opacity:1"
       d="m -139.989,980.7816 c 0.16924,0 0.33951,0 0.50771,0 0.1387,0 0.26769,0 0.40616,0 0.13435,0 0.27214,0 0.40617,0 0.10595,0 0.19866,0 0.30462,0 0.13402,0 0.27182,0 0.40617,0 0.13847,0 0.26746,0 0.40616,0 0.16819,0 0.33847,0 0.5077,0 0.60925,0 1.2185,0 1.82774,0 2.586,0 -0.23047,0 2.64007,0 0.82976,0 1.70441,0 2.53853,0 0.74464,0 1.48927,0 2.23391,0 0.093,0 0.5846,0 0.60924,0 0.0563,0 -0.0479,0 0,-0.03 0.0479,0 0.13799,0 0.20309,0 0.17524,0 0.32606,0 0.5077,-0.03 0.23851,0 0.47216,0 0.71079,0 0.50621,0 1.01629,0 1.52312,0 0.27241,0 0.54038,0 0.81233,0 0.13491,0 0.2734,0 0.40616,0 0.20991,0 0.39934,0 0.60925,0.03 0.29871,0 0.61076,0 0.91387,0 0.17172,0 0.33685,0 0.5077,0 0.29454,0 0.71541,0 1.01542,0 0.13538,0 0.28507,0 0.40616,0 0.0677,0 0.0339,0 0.10153,-0.03 0.0439,0 0.81652,0 0.91387,0"
       id="path3623"
       inkscape:connector-curvature="0" />
    <path
       inkscape:connector-curvature="0"
       id="path3625"
       d="m -141.85787,981.6698 c 0.16923,0 0.3395,0 0.5077,0 0.13871,0 0.26769,0 0.40617,0 0.13434,0 0.27214,0 0.40616,0 0.10595,0 0.19867,0 0.30463,0 0.13401,0 0.27182,0 0.40616,0 0.13848,0 0.26746,0 0.40617,0 0.16819,0 0.33846,0 0.5077,0 0.60925,0 1.21849,0 1.82774,0 2.586,0 -0.23047,0 2.64007,0 0.82976,0 1.70441,0 2.53853,0 0.74463,0 1.48927,0 2.2339,0 0.093,0 0.58461,0 0.60925,0 0.0563,0 -0.0479,0 0,-0.03 0.0479,0 0.13799,0 0.20308,0 0.17524,0 0.32607,0 0.50771,-0.03 0.23851,0 0.47216,0 0.71078,0 0.50622,0 1.01629,0 1.52312,0 0.27242,0 0.54039,0 0.81233,0 0.13492,0 0.27341,0 0.40617,0 0.20991,0 0.39933,0 0.60924,0.03 0.29871,0 0.61076,0 0.91387,0 0.17172,0 0.33686,0 0.50771,0 0.29454,0 0.7154,0 1.01541,0 0.13538,0 0.28507,0 0.40617,0 0.0677,0 0.0339,0 0.10153,-0.03 0.0439,0 0.81652,0 0.91387,0"
       style="fill:none;fill-rule:evenodd;stroke:#000000;stroke-width:0.31770319px;stroke-linecap:butt;stroke-linejoin:miter;stroke-opacity:1" />
    <path
       style="fill:none;fill-rule:evenodd;stroke:#000000;stroke-width:0.31770319px;stroke-linecap:butt;stroke-linejoin:miter;stroke-opacity:1"
       d="m -146.44761,982.5262 c 0.16924,0 0.33951,0 0.50771,0 0.1387,0 0.26769,0 0.40616,0 0.13435,0 0.27214,0 0.40617,0 0.10595,0 0.19866,0 0.30462,0 0.13402,0 0.27182,0 0.40617,0 0.13848,0 0.26746,0 0.40616,0 0.1682,0 0.33847,0 0.50771,0 0.60924,0 1.21849,0 1.82774,0 2.586,0 -0.23047,0 2.64007,0 0.82976,0 1.7044,0 2.53852,0 0.74464,0 1.48927,0 2.23391,0 0.093,0 0.58461,0 0.60924,0 0.0563,0 -0.0479,0 0,-0.03 0.0479,0 0.13799,0 0.20309,0 0.17524,0 0.32606,0 0.50771,-0.03 0.23851,0 0.47215,0 0.71078,0 0.50621,0 1.01629,0 1.52312,0 0.27241,0 0.54039,0 0.81233,0 0.13491,0 0.2734,0 0.40616,0 0.20991,0 0.39934,0 0.60925,0.03 0.29871,0 0.61076,0 0.91387,0 0.17172,0 0.33685,0 0.50771,0 0.29453,0 0.7154,0 1.01541,0 0.13538,0 0.28507,0 0.40616,0 0.0677,0 0.0339,0 0.10153,-0.03 0.044,0 0.81653,0 0.91387,0"
       id="path3627"
       inkscape:connector-curvature="0" />
    <rect
       style="fill:#803300;fill-opacity:1;stroke:#000000;stroke-width:0.29510391;stroke-miterlimit:4;stroke-dasharray:none;stroke-opacity:1"
       id="rect4390"
       width="99.704903"
       height="9.704896"
       x="-127.85245"
       y="1022.5098" />
    <rect
       y="1007.5098"
       x="-127.85245"
       height="9.704896"
       width="99.704903"
       id="rect4392"
       style="fill:#803300;fill-opacity:1;stroke:#000000;stroke-width:0.29510391;stroke-miterlimit:4;stroke-dasharray:none;stroke-opacity:1" />
    <rect
       style="fill:#803300;fill-opacity:1;stroke:#000000;stroke-width:0.29510391;stroke-miterlimit:4;stroke-dasharray:none;stroke-opacity:1"
       id="rect4394"
       width="99.704903"
       height="9.704896"
       x="-127.85245"
       y="992.50977" />
    <path
       style="fill:none;fill-rule:evenodd;stroke:#000000;stroke-width:0.31770319px;stroke-linecap:butt;stroke-linejoin:miter;stroke-opacity:1"
       d="m -33.62278,997.9046 c 0.169233,0 0.339506,0 0.507705,0 0.138703,0 0.267688,0 0.406165,0 0.134344,0 0.272136,0 0.406165,0 0.105952,0 0.198665,0 0.304623,0 0.134018,0 0.271823,0 0.406165,0 0.138478,0 0.267462,0 0.406165,0 0.168195,0 0.338469,0 0.507705,0 0.609245,0 1.218493,0 1.82774,0 2.585997,0 -0.230472,0 2.640067,0 0.82976,0 1.70441,0 2.53853,0 0.74463,0 1.48927,0 2.2339,0 0.093,0 0.58461,0 0.60925,0 0.0563,0 -0.0479,0 0,-0.03 0.0479,0 0.13799,0 0.20308,0 0.17525,0 0.32607,0 0.50771,-0.03 0.23851,0 0.47216,0 0.71079,0 0.50621,0 1.01629,0 1.52312,0 0.27241,0 0.54038,0 0.81232,0 0.13492,0 0.27341,0 0.40617,0 0.20991,0 0.39933,0 0.60925,0.03 0.2987,0 0.61076,0 0.91387,0 0.17172,0 0.33685,0 0.5077,0 0.29454,0 0.7154,0 1.01541,0 0.13539,0 0.28507,0 0.40617,0 0.0677,0 0.0339,0 0.10153,-0.03 0.0439,0 0.81652,0 0.91387,0"
       id="path4396"
       inkscape:connector-curvature="0" />
    <path
       inkscape:connector-curvature="0"
       id="path4398"
       d="m -35.739004,998.7816 c 0.169233,0 0.339504,0 0.507705,0 0.138703,0 0.267688,0 0.406165,0 0.134344,0 0.272136,0 0.406163,0 0.105952,0 0.198665,0 0.304625,0 0.134018,0 0.271821,0 0.406165,0 0.138478,0 0.26746,0 0.406163,0 0.168195,0 0.338471,0 0.507705,0 0.609247,0 1.218495,0 1.82774,0 2.586001,0 -0.23047,0 2.640071,0 0.829762,0 1.704402,0 2.538522,0 0.74464,0 1.48927,0 2.23391,0 0.093,0 0.58461,0 0.60924,0 0.0563,0 -0.0479,0 0,-0.03 0.0479,0 0.13799,0 0.20309,0 0.17524,0 0.32606,0 0.50771,-0.03 0.2385,0 0.47215,0 0.71078,0 0.50621,0 1.01629,0 1.52312,0 0.27241,0 0.54039,0 0.81233,0 0.13491,0 0.27341,0 0.40616,0 0.20991,0 0.39934,0 0.60925,0.03 0.29871,0 0.61076,0 0.91387,0 0.17172,0 0.33685,0 0.50771,0 0.29453,0 0.7154,0 1.01541,0 0.13538,0 0.28507,0 0.40616,0 0.0677,0 0.0339,0 0.10153,-0.03 0.0439,0 0.81653,0 0.91387,0"
       style="fill:none;fill-rule:evenodd;stroke:#000000;stroke-width:0.31770319px;stroke-linecap:butt;stroke-linejoin:miter;stroke-opacity:1" />
    <path
       style="fill:none;fill-rule:evenodd;stroke:#000000;stroke-width:0.31770319px;stroke-linecap:butt;stroke-linejoin:miter;stroke-opacity:1"
       d="m -37.607879,999.6698 c 0.169234,0 0.339506,0 0.507705,0 0.138703,0 0.267688,0 0.406165,0 0.134344,0 0.272139,0 0.406165,0 0.105952,0 0.198665,0 0.304623,0 0.134018,0 0.271821,0 0.406165,0 0.138479,0 0.267462,0 0.406165,0 0.168195,0 0.338469,0 0.507705,0 0.609248,0 1.218493,0 1.827741,0 2.585998,0 -0.230473,0 2.640068,0 0.829759,0 1.704409,0 2.538527,0 0.74464,0 1.48927,0 2.2339,0 0.093,0 0.58461,0 0.60925,0 0.0563,0 -0.0479,0 0,-0.03 0.0479,0 0.13799,0 0.20309,0 0.17524,0 0.32606,0 0.5077,-0.03 0.23851,0 0.47216,0 0.71079,0 0.50621,0 1.01629,0 1.52312,0 0.27241,0 0.54038,0 0.81233,0 0.13491,0 0.2734,0 0.40616,0 0.20991,0 0.39934,0 0.60925,0.03 0.29871,0 0.61076,0 0.91387,0 0.17172,0 0.33685,0 0.5077,0 0.29454,0 0.71541,0 1.01541,0 0.13539,0 0.28507,0 0.40617,0 0.0677,0 0.0339,0 0.10153,-0.03 0.044,0 0.81652,0 0.91387,0"
       id="path4400"
       inkscape:connector-curvature="0" />
    <path
       inkscape:connector-curvature="0"
       id="path4402"
       d="m -42.197612,1000.5262 c 0.169234,0 0.339506,0 0.507705,0 0.138703,0 0.267689,0 0.406165,0 0.134344,0 0.272137,0 0.406165,0 0.105952,0 0.198665,0 0.304623,0 0.134018,0 0.271821,0 0.406165,0 0.138479,0 0.26746,0 0.406163,0 0.168195,0 0.338471,0 0.507705,0 0.609248,0 1.218495,0 1.827741,0 2.586,0 -0.230471,0 2.64007,0 0.829759,0 1.704407,0 2.538526,0 0.744637,0 1.489271,0 2.233906,0 0.093,0 0.584607,0 0.609245,0 0.05632,0 -0.04786,0 0,-0.03 0.04786,0 0.13799,0 0.203085,0 0.175242,0 0.326065,0 0.507707,-0.03 0.23851,0 0.472158,0 0.710781,0 0.50621,0 1.01629,0 1.52312,0 0.27242,0 0.54039,0 0.81233,0 0.13492,0 0.27341,0 0.40617,0 0.20991,0 0.39933,0 0.60924,0.03 0.29871,0 0.61076,0 0.91387,0 0.17172,0 0.33686,0 0.50771,0 0.29453,0 0.7154,0 1.01541,0 0.13538,0 0.28507,0 0.40616,0 0.0677,0 0.0339,0 0.10154,-0.03 0.044,0 0.81652,0 0.91386,0"
       style="fill:none;fill-rule:evenodd;stroke:#000000;stroke-width:0.31770319px;stroke-linecap:butt;stroke-linejoin:miter;stroke-opacity:1" />
    <path
       inkscape:connector-curvature="0"
       id="path4404"
       d="m -95.372776,1012.6546 c 0.169233,0 0.339506,0 0.507705,0 0.138703,0 0.267688,0 0.406165,0 0.134344,0 0.272136,0 0.406165,0 0.105952,0 0.198665,0 0.304623,0 0.134018,0 0.271823,0 0.406165,0 0.138478,0 0.267462,0 0.406165,0 0.168195,0 0.338469,0 0.507705,0 0.609245,0 1.218493,0 1.82774,0 2.585997,0 -0.230472,0 2.640067,0 0.82976,0 1.70441,0 2.53853,0 0.74463,0 1.48927,0 2.2339,0 0.093,0 0.58461,0 0.60925,0 0.0563,0 -0.0479,0 0,-0.03 0.0479,0 0.13799,0 0.20308,0 0.17525,0 0.32607,0 0.50771,-0.03 0.23851,0 0.47216,0 0.71079,0 0.50621,0 1.01629,0 1.52312,0 0.27241,0 0.54038,0 0.81232,0 0.13492,0 0.27341,0 0.40617,0 0.20991,0 0.39933,0 0.60925,0.03 0.2987,0 0.61076,0 0.91387,0 0.17172,0 0.33685,0 0.5077,0 0.29454,0 0.7154,0 1.01541,0 0.13539,0 0.28507,0 0.40617,0 0.0677,0 0.0339,0 0.10153,-0.03 0.0439,0 0.81652,0 0.91387,0"
       style="fill:none;fill-rule:evenodd;stroke:#000000;stroke-width:0.31770319px;stroke-linecap:butt;stroke-linejoin:miter;stroke-opacity:1" />
    <path
       style="fill:none;fill-rule:evenodd;stroke:#000000;stroke-width:0.31770319px;stroke-linecap:butt;stroke-linejoin:miter;stroke-opacity:1"
       d="m -97.489,1013.5316 c 0.169233,0 0.339504,0 0.507705,0 0.138703,0 0.267688,0 0.406165,0 0.134344,0 0.272136,0 0.406163,0 0.105952,0 0.198665,0 0.304625,0 0.134018,0 0.271821,0 0.406165,0 0.138478,0 0.26746,0 0.406163,0 0.168195,0 0.338471,0 0.507705,0 0.609247,0 1.218495,0 1.82774,0 2.586001,0 -0.23047,0 2.640071,0 0.829762,0 1.704402,0 2.538522,0 0.74464,0 1.48927,0 2.23391,0 0.093,0 0.58461,0 0.60924,0 0.0563,0 -0.0479,0 0,-0.03 0.0479,0 0.13799,0 0.20309,0 0.17524,0 0.32606,0 0.50771,-0.03 0.2385,0 0.47215,0 0.71078,0 0.50621,0 1.01629,0 1.52312,0 0.27241,0 0.54039,0 0.81233,0 0.13491,0 0.27341,0 0.40616,0 0.20991,0 0.39934,0 0.60925,0.03 0.29871,0 0.61076,0 0.91387,0 0.17172,0 0.33685,0 0.50771,0 0.29453,0 0.7154,0 1.01541,0 0.13538,0 0.28507,0 0.40616,0 0.0677,0 0.0339,0 0.10153,-0.03 0.0439,0 0.81653,0 0.91387,0"
       id="path4406"
       inkscape:connector-curvature="0" />
    <path
       inkscape:connector-curvature="0"
       id="path4408"
       d="m -99.357875,1014.4198 c 0.169234,0 0.339506,0 0.507705,0 0.138703,0 0.267688,0 0.406165,0 0.134344,0 0.272139,0 0.406165,0 0.105952,0 0.198665,0 0.304623,0 0.134018,0 0.271821,0 0.406165,0 0.138479,0 0.267462,0 0.406165,0 0.168195,0 0.338469,0 0.507705,0 0.609248,0 1.218493,0 1.827741,0 2.585998,0 -0.230473,0 2.640068,0 0.829759,0 1.704409,0 2.538527,0 0.74464,0 1.48927,0 2.2339,0 0.093,0 0.58461,0 0.60925,0 0.0563,0 -0.0479,0 0,-0.03 0.0479,0 0.13799,0 0.20309,0 0.17524,0 0.32606,0 0.5077,-0.03 0.23851,0 0.47216,0 0.71079,0 0.50621,0 1.01629,0 1.52312,0 0.27241,0 0.54038,0 0.81233,0 0.13491,0 0.2734,0 0.40616,0 0.20991,0 0.39934,0 0.60925,0.03 0.29871,0 0.61076,0 0.91387,0 0.17172,0 0.33685,0 0.5077,0 0.29454,0 0.71541,0 1.01541,0 0.13539,0 0.28507,0 0.40617,0 0.0677,0 0.0339,0 0.10153,-0.03 0.044,0 0.81652,0 0.91387,0"
       style="fill:none;fill-rule:evenodd;stroke:#000000;stroke-width:0.31770319px;stroke-linecap:butt;stroke-linejoin:miter;stroke-opacity:1" />
    <path
       style="fill:none;fill-rule:evenodd;stroke:#000000;stroke-width:0.31770319px;stroke-linecap:butt;stroke-linejoin:miter;stroke-opacity:1"
       d="m -103.94761,1015.2762 c 0.16924,0 0.33951,0 0.50771,0 0.1387,0 0.26769,0 0.40616,0 0.13435,0 0.27214,0 0.40617,0 0.10595,0 0.19866,0 0.30462,0 0.13402,0 0.27182,0 0.40617,0 0.13847,0 0.26746,0 0.40616,0 0.16819,0 0.33847,0 0.5077,0 0.60925,0 1.218498,0 1.827744,0 2.586,0 -0.230471,0 2.64007,0 0.829759,0 1.704407,0 2.538526,0 0.744637,0 1.489271,0 2.233906,0 0.093,0 0.584607,0 0.609245,0 0.05632,0 -0.04786,0 0,-0.03 0.04786,0 0.13799,0 0.203085,0 0.175242,0 0.326065,0 0.507707,-0.03 0.23851,0 0.472158,0 0.710781,0 0.50621,0 1.01629,0 1.52312,0 0.27242,0 0.54039,0 0.81233,0 0.13492,0 0.27341,0 0.40617,0 0.20991,0 0.39933,0 0.60924,0.03 0.29871,0 0.61076,0 0.91387,0 0.17172,0 0.33686,0 0.50771,0 0.29453,0 0.7154,0 1.01541,0 0.13538,0 0.28507,0 0.40616,0 0.0677,0 0.0339,0 0.10154,-0.03 0.044,0 0.81652,0 0.91386,0"
       id="path4410"
       inkscape:connector-curvature="0" />
    <path
       style="display:inline;fill:none;fill-rule:evenodd;stroke:#000000;stroke-width:0.29936147px;stroke-linecap:butt;stroke-linejoin:miter;stroke-opacity:1"
       d="m -48.650932,1028.0053 c 0.146997,0 0.294896,0 0.440994,0 0.120478,0 0.232515,0 0.352796,0 0.116692,0 0.236379,0 0.352797,0 0.09203,0 0.17256,0 0.264596,0 0.116409,0 0.236106,0 0.352796,0 0.120283,0 0.232318,0 0.352796,0 0.146095,0 0.293996,0 0.440994,0 0.529193,0 1.058387,0 1.587581,0 2.246207,0 -0.200189,0 2.293172,0 0.72073,0 1.480455,0 2.204973,0 0.646792,0 1.293585,0 1.940375,0 0.08078,0 0.507792,0 0.529193,0 0.04892,0 -0.04158,0 0,-0.033 0.04157,0 0.119858,0 0.1764,0 0.152215,0 0.283221,0 0.440996,-0.033 0.20717,0 0.410117,0 0.61739,0 0.439698,0 0.882753,0 1.322987,0 0.236619,0 0.469381,0 0.70559,0 0.117187,0 0.237481,0 0.352795,0 0.18233,0 0.346866,0 0.529196,0.033 0.259457,0 0.530507,0 0.79379,0 0.149155,0 0.292591,0 0.440993,0 0.255837,0 0.621403,0 0.88199,0 0.117594,0 0.247613,0 0.352794,0 0.05881,0 0.0294,0 0.08819,-0.033 0.03818,0 0.709235,0 0.793791,0"
       id="path3597"
       inkscape:connector-curvature="0" />
    <path
       inkscape:connector-curvature="0"
       id="path3599"
       d="m -59.377058,1028.9017 c 0.146997,0 0.294894,0 0.440994,0 0.120478,0 0.232515,0 0.352796,0 0.116692,0 0.236379,0 0.352795,0 0.09203,0 0.172561,0 0.264598,0 0.116409,0 0.236104,0 0.352796,0 0.120283,0 0.232317,0 0.352794,0 0.146095,0 0.293998,0 0.440995,0 0.529194,0 1.058388,0 1.587581,0 2.246208,0 -0.200188,0 2.293173,0 0.720731,0 1.480453,0 2.204971,0 0.646794,0 1.293586,0 1.940377,0 0.08078,0 0.507792,0 0.529193,0 0.04892,0 -0.04158,0 0,-0.033 0.04157,0 0.119858,0 0.1764,0 0.152215,0 0.283219,0 0.440996,-0.033 0.207168,0 0.410117,0 0.61739,0 0.439696,0 0.882751,0 1.322985,0 0.236619,0 0.469382,0 0.705592,0 0.117187,0 0.237481,0 0.352795,0 0.18233,0 0.346866,0 0.529194,0.033 0.259459,0 0.530507,0 0.79379,0 0.149156,0 0.292593,0 0.440995,0 0.255835,0 0.621401,0 0.88199,0 0.117594,0 0.247613,0 0.352794,0 0.05881,0 0.0294,0 0.08819,-0.033 0.03818,0 0.709235,0 0.793789,0"
       style="display:inline;fill:none;fill-rule:evenodd;stroke:#000000;stroke-width:0.29936147px;stroke-linecap:butt;stroke-linejoin:miter;stroke-opacity:1" />
    <path
       style="display:inline;fill:none;fill-rule:evenodd;stroke:#000000;stroke-width:0.29936147px;stroke-linecap:butt;stroke-linejoin:miter;stroke-opacity:1"
       d="m -52.112401,1029.8096 c 0.146997,0 0.294896,0 0.440995,0 0.120477,0 0.232514,0 0.352796,0 0.116691,0 0.23638,0 0.352796,0 0.09203,0 0.172561,0 0.264596,0 0.116409,0 0.236104,0 0.352796,0 0.120283,0 0.232319,0 0.352796,0 0.146095,0 0.293996,0 0.440995,0 0.529194,0 1.058386,0 1.587581,0 2.246206,0 -0.20019,0 2.293171,0 0.720731,0 1.480455,0 2.204973,0 0.646792,0 1.293586,0 1.940376,0 0.08078,0 0.507791,0 0.529194,0 0.04892,0 -0.04158,0 0,-0.033 0.04157,0 0.119858,0 0.1764,0 0.152215,0 0.283219,0 0.440994,-0.031 0.20717,0 0.410119,0 0.617391,0 0.439697,0 0.882752,0 1.322986,0 0.236619,0 0.469382,0 0.70559,0 0.117188,0 0.237483,0 0.352797,0 0.18233,0 0.346864,0 0.529194,0.031 0.259459,0 0.530507,0 0.79379,0 0.149156,0 0.292591,0 0.440995,0 0.255835,0 0.621401,0 0.881988,0 0.117594,0 0.247613,0 0.352796,0 0.05881,0 0.0294,0 0.08819,-0.031 0.03818,0 0.709234,0 0.793789,0"
       id="path3601"
       inkscape:connector-curvature="0" />
    <path
       inkscape:connector-curvature="0"
       id="path3603"
       d="m -47.987022,1030.6399 c 0.146997,0 0.294896,0 0.440994,0 0.120478,0 0.232515,0 0.352796,0 0.116692,0 0.236379,0 0.352796,0 0.09203,0 0.172561,0 0.264597,0 0.116408,0 0.236104,0 0.352796,0 0.120283,0 0.232317,0 0.352794,0 0.146095,0 0.293998,0 0.440995,0 0.529194,0 1.058388,0 1.58758,0 2.246209,0 -0.200187,0 2.293174,0 0.72073,0 1.480453,0 2.204971,0 0.646794,0 1.293585,0 1.940377,0 0.08078,0 0.507791,0 0.529193,0 0.04892,0 -0.04158,0 0,-0.033 0.04157,0 0.119858,0 0.176399,0 0.152216,0 0.283222,0 0.440997,-0.031 0.20717,0 0.410117,0 0.61739,0 0.439696,0 0.882753,0 1.322985,0 0.236619,0 0.469382,0 0.705592,0 0.117187,0 0.237481,0 0.352795,0 0.182329,0 0.346866,0 0.529196,0.031 0.259456,0 0.530505,0 0.793788,0 0.149155,0 0.292593,0 0.440994,0 0.255836,0 0.621402,0 0.881991,0 0.117594,0 0.247612,0 0.352794,0 0.05881,0 0.0294,0 0.08819,-0.031 0.03818,0 0.709235,0 0.793789,0"
       style="display:inline;fill:none;fill-rule:evenodd;stroke:#000000;stroke-width:0.29936147px;stroke-linecap:butt;stroke-linejoin:miter;stroke-opacity:1" />
  </g>
</svg>
