<?xml version="1.0" encoding="UTF-8" standalone="no"?>
<!-- Created with Inkscape (http://www.inkscape.org/) -->

<svg
   xmlns:dc="http://purl.org/dc/elements/1.1/"
   xmlns:cc="http://creativecommons.org/ns#"
   xmlns:rdf="http://www.w3.org/1999/02/22-rdf-syntax-ns#"
   xmlns:svg="http://www.w3.org/2000/svg"
   xmlns="http://www.w3.org/2000/svg"
   xmlns:sodipodi="http://sodipodi.sourceforge.net/DTD/sodipodi-0.dtd"
   xmlns:inkscape="http://www.inkscape.org/namespaces/inkscape"
   width="20"
   height="20"
   viewBox="0 0 20 20"
   id="svg2"
   version="1.1"
   inkscape:version="0.91 r13725"
   inkscape:export-filename="/home/rcreed/Development/Godot/RedMetal/wind.png"
   inkscape:export-xdpi="90"
   inkscape:export-ydpi="90"
   sodipodi:docname="fire.svg">
  <defs
     id="defs4">
    <marker
       inkscape:stockid="Arrow1Lstart"
       orient="auto"
       refY="0"
       refX="0"
       id="Arrow1Lstart"
       style="overflow:visible"
       inkscape:isstock="true">
      <path
         id="path4184"
         d="M 0,0 5,-5 -12.5,0 5,5 0,0 Z"
         style="fill:#000000;fill-opacity:1;fill-rule:evenodd;stroke:#000000;stroke-width:1pt;stroke-opacity:1"
         transform="matrix(0.8,0,0,0.8,10,0)"
         inkscape:connector-curvature="0" />
    </marker>
  </defs>
  <sodipodi:namedview
     id="base"
     pagecolor="#ffffff"
     bordercolor="#666666"
     borderopacity="1.0"
     inkscape:pageopacity="0.0"
     inkscape:pageshadow="2"
     inkscape:zoom="15.839192"
     inkscape:cx="-6.1895156"
     inkscape:cy="13.869792"
     inkscape:document-units="px"
     inkscape:current-layer="layer1"
     showgrid="false"
     units="px"
     inkscape:window-width="1317"
     inkscape:window-height="744"
     inkscape:window-x="49"
     inkscape:window-y="24"
     inkscape:window-maximized="1" />
  <metadata
     id="metadata7">
    <rdf:RDF>
      <cc:Work
         rdf:about="">
        <dc:format>image/svg+xml</dc:format>
        <dc:type
           rdf:resource="http://purl.org/dc/dcmitype/StillImage" />
        <dc:title></dc:title>
      </cc:Work>
    </rdf:RDF>
  </metadata>
  <g
     inkscape:label="Layer 1"
     inkscape:groupmode="layer"
     id="layer1"
     transform="translate(0,-1032.3622)">
    <path
       sodipodi:type="spiral"
       style="fill:#aa4400;fill-opacity:0;fill-rule:evenodd;stroke:#ff6600;stroke-width:1px;stroke-linecap:butt;stroke-linejoin:miter;stroke-opacity:1"
       id="path4524"
       sodipodi:cx="12.248099"
       sodipodi:cy="1040.998"
       sodipodi:expansion="1"
       sodipodi:revolution="3"
       sodipodi:radius="11.633898"
       sodipodi:argument="-19.298641"
       sodipodi:t0="0"
       d="m 12.248099,1040.998 c 0.525468,-0.2532 0.600606,0.5834 0.420897,0.8734 -0.487,0.7858 -1.626131,0.5413 -2.167619,-0.032 -0.9685957,-1.0247 -0.5520872,-2.6607 0.484032,-3.4618 1.520547,-1.1757 3.711251,-0.5684 4.756135,0.9365 1.392666,2.0057 0.587288,4.7676 -1.388961,6.0504 -2.486908,1.6142 -5.8269154,0.6076 -7.3446506,-1.8415 -1.8381808,-2.9661 -0.6288372,-6.8878 2.2938902,-8.6389 3.4443334,-2.0636 7.9497144,-0.6505 9.9331664,2.7464 2.289973,3.9218 0.672638,9.0123 -3.19882,11.2274 -4.398996,2.517 -10.0753613,0.695 -12.5216813,-3.6513 -2.74440135,-4.8758 -0.7174649,-11.1388 4.1037482,-13.8159 5.3524601,-2.9722 12.2024381,-0.7401 15.1101971,4.5562"
       transform="matrix(0.93502371,0,0,0.95504879,-1.661659,49.080236)" />
  </g>
</svg>
